# xmcd
#
# Track frame offsets:
#	150
#	10478
#	26902
#	40265
#	55427
#	65561
#	77484
#	91322
#	104421
#	118756
#	131609
#	143239
#
# Disc length: 2108 seconds
#
# Revision: 0
# Processed by: cddbd v1.5.2PL0 Copyright (c) Steve Scherf et al.
# Submitted via: EZCDAudioConverter 3.1.3.1
#
DISCID=a9083a0c
DTITLE=Castellina-Pasi - Sony_1
DYEAR=1900
DGENRE=
TTITLE0=Tutto pepe
TTITLE1=Perdono
TTITLE2=Il Valzer dell'amore
TTITLE3=Luci blu
TTITLE4=Altalena
TTITLE5=Gli amici della notte
TTITLE6=L'ora del tangaccio
TTITLE7=Spaccafisa
TTITLE8=Appssionatamente
TTITLE9=Dolores de panza
TTITLE10=El Picador
TTITLE11=Canto della valle
EXTD=
EXTT0=
EXTT1=
EXTT2=
EXTT3=
EXTT4=
EXTT5=
EXTT6=
EXTT7=
EXTT8=
EXTT9=
EXTT10=
EXTT11=
PLAYORDER=
